<mxfile host="app.diagrams.net" modified="2022-03-18T06:38:24.419Z" agent="5.0 (Windows NT 10.0; Win64; x64) AppleWebKit/537.36 (KHTML, like Gecko) Chrome/99.0.4844.74 Safari/537.36" etag="mGDWlEL7oeCL30jAd2CY" version="17.1.2" type="github">
  <diagram id="UbQqQiiFNN8-QZaEHGcQ" name="Page-1">
    <mxGraphModel dx="1296" dy="727" grid="1" gridSize="10" guides="1" tooltips="1" connect="1" arrows="1" fold="1" page="1" pageScale="1" pageWidth="850" pageHeight="1100" math="0" shadow="0">
      <root>
        <mxCell id="0" />
        <mxCell id="1" parent="0" />
        <mxCell id="IoPZMogMuGn2sWMJ8WOs-3" value="" style="ellipse;html=1;shape=startState;fillColor=#000000;strokeColor=#ff0000;" vertex="1" parent="1">
          <mxGeometry x="385" y="20" width="30" height="30" as="geometry" />
        </mxCell>
        <mxCell id="IoPZMogMuGn2sWMJ8WOs-4" value="" style="edgeStyle=orthogonalEdgeStyle;html=1;verticalAlign=bottom;endArrow=open;endSize=8;strokeColor=#ff0000;rounded=0;entryX=0.5;entryY=0;entryDx=0;entryDy=0;startArrow=none;" edge="1" source="IoPZMogMuGn2sWMJ8WOs-18" parent="1" target="IoPZMogMuGn2sWMJ8WOs-5">
          <mxGeometry relative="1" as="geometry">
            <mxPoint x="400" y="180" as="targetPoint" />
          </mxGeometry>
        </mxCell>
        <mxCell id="IoPZMogMuGn2sWMJ8WOs-5" value="Login" style="rounded=1;whiteSpace=wrap;html=1;arcSize=40;fontColor=#000000;fillColor=#ffffc0;strokeColor=#ff0000;" vertex="1" parent="1">
          <mxGeometry x="340" y="170" width="120" height="30" as="geometry" />
        </mxCell>
        <mxCell id="IoPZMogMuGn2sWMJ8WOs-6" value="" style="edgeStyle=orthogonalEdgeStyle;html=1;verticalAlign=bottom;endArrow=open;endSize=8;strokeColor=#ff0000;rounded=0;entryX=0.49;entryY=0.42;entryDx=0;entryDy=0;entryPerimeter=0;" edge="1" source="IoPZMogMuGn2sWMJ8WOs-5" parent="1" target="IoPZMogMuGn2sWMJ8WOs-7">
          <mxGeometry relative="1" as="geometry">
            <mxPoint x="400" y="250" as="targetPoint" />
          </mxGeometry>
        </mxCell>
        <mxCell id="IoPZMogMuGn2sWMJ8WOs-14" style="edgeStyle=orthogonalEdgeStyle;rounded=0;orthogonalLoop=1;jettySize=auto;html=1;entryX=0.5;entryY=0;entryDx=0;entryDy=0;strokeColor=#EA0C0C;strokeWidth=1;endArrow=open;endFill=0;endSize=8;" edge="1" parent="1" source="IoPZMogMuGn2sWMJ8WOs-7" target="IoPZMogMuGn2sWMJ8WOs-11">
          <mxGeometry relative="1" as="geometry">
            <Array as="points">
              <mxPoint x="240" y="270" />
              <mxPoint x="240" y="270" />
            </Array>
          </mxGeometry>
        </mxCell>
        <mxCell id="IoPZMogMuGn2sWMJ8WOs-7" value="" style="shape=line;html=1;strokeWidth=6;strokeColor=#ff0000;" vertex="1" parent="1">
          <mxGeometry x="180" y="240" width="450" height="10" as="geometry" />
        </mxCell>
        <mxCell id="IoPZMogMuGn2sWMJ8WOs-11" value="Coin" style="rounded=1;whiteSpace=wrap;html=1;arcSize=40;fontColor=#000000;fillColor=#ffffc0;strokeColor=#ff0000;" vertex="1" parent="1">
          <mxGeometry x="180" y="290" width="120" height="30" as="geometry" />
        </mxCell>
        <mxCell id="IoPZMogMuGn2sWMJ8WOs-12" value="" style="edgeStyle=orthogonalEdgeStyle;html=1;verticalAlign=bottom;endArrow=open;endSize=8;strokeColor=#ff0000;rounded=0;" edge="1" source="IoPZMogMuGn2sWMJ8WOs-11" parent="1" target="IoPZMogMuGn2sWMJ8WOs-15">
          <mxGeometry relative="1" as="geometry">
            <mxPoint x="240" y="370" as="targetPoint" />
          </mxGeometry>
        </mxCell>
        <mxCell id="IoPZMogMuGn2sWMJ8WOs-21" style="edgeStyle=orthogonalEdgeStyle;rounded=0;orthogonalLoop=1;jettySize=auto;html=1;endArrow=open;endFill=0;endSize=8;strokeColor=#EA0C0C;strokeWidth=1;" edge="1" parent="1" source="IoPZMogMuGn2sWMJ8WOs-15" target="IoPZMogMuGn2sWMJ8WOs-16">
          <mxGeometry relative="1" as="geometry">
            <Array as="points">
              <mxPoint x="180" y="380" />
              <mxPoint x="180" y="380" />
            </Array>
          </mxGeometry>
        </mxCell>
        <mxCell id="IoPZMogMuGn2sWMJ8WOs-23" style="edgeStyle=orthogonalEdgeStyle;rounded=0;orthogonalLoop=1;jettySize=auto;html=1;entryX=0.5;entryY=0;entryDx=0;entryDy=0;endArrow=open;endFill=0;endSize=8;strokeColor=#EA0C0C;strokeWidth=1;" edge="1" parent="1" source="IoPZMogMuGn2sWMJ8WOs-15" target="IoPZMogMuGn2sWMJ8WOs-22">
          <mxGeometry relative="1" as="geometry">
            <Array as="points">
              <mxPoint x="310" y="370" />
              <mxPoint x="310" y="370" />
            </Array>
          </mxGeometry>
        </mxCell>
        <mxCell id="IoPZMogMuGn2sWMJ8WOs-15" value="" style="shape=line;html=1;strokeWidth=6;strokeColor=#ff0000;" vertex="1" parent="1">
          <mxGeometry x="160" y="350" width="160" height="10" as="geometry" />
        </mxCell>
        <mxCell id="IoPZMogMuGn2sWMJ8WOs-39" style="edgeStyle=orthogonalEdgeStyle;rounded=0;orthogonalLoop=1;jettySize=auto;html=1;endArrow=open;endFill=0;endSize=8;strokeColor=#EA0C0C;strokeWidth=1;" edge="1" parent="1" source="IoPZMogMuGn2sWMJ8WOs-16" target="IoPZMogMuGn2sWMJ8WOs-38">
          <mxGeometry relative="1" as="geometry" />
        </mxCell>
        <mxCell id="IoPZMogMuGn2sWMJ8WOs-16" value="Add" style="rounded=1;whiteSpace=wrap;html=1;arcSize=40;fontColor=#000000;fillColor=#ffffc0;strokeColor=#ff0000;" vertex="1" parent="1">
          <mxGeometry x="120" y="410" width="120" height="30" as="geometry" />
        </mxCell>
        <mxCell id="IoPZMogMuGn2sWMJ8WOs-18" value="Open Application" style="rounded=1;whiteSpace=wrap;html=1;arcSize=40;fontColor=#000000;fillColor=#ffffc0;strokeColor=#ff0000;" vertex="1" parent="1">
          <mxGeometry x="340" y="80" width="120" height="30" as="geometry" />
        </mxCell>
        <mxCell id="IoPZMogMuGn2sWMJ8WOs-19" value="" style="edgeStyle=orthogonalEdgeStyle;html=1;verticalAlign=bottom;endArrow=none;endSize=8;strokeColor=#ff0000;rounded=0;entryX=0.5;entryY=0;entryDx=0;entryDy=0;" edge="1" parent="1" source="IoPZMogMuGn2sWMJ8WOs-3" target="IoPZMogMuGn2sWMJ8WOs-18">
          <mxGeometry relative="1" as="geometry">
            <mxPoint x="400" y="170" as="targetPoint" />
            <mxPoint x="400" y="50" as="sourcePoint" />
          </mxGeometry>
        </mxCell>
        <mxCell id="IoPZMogMuGn2sWMJ8WOs-33" style="edgeStyle=orthogonalEdgeStyle;rounded=0;orthogonalLoop=1;jettySize=auto;html=1;endArrow=open;endFill=0;endSize=8;strokeColor=#EA0C0C;strokeWidth=1;" edge="1" parent="1" source="IoPZMogMuGn2sWMJ8WOs-22" target="IoPZMogMuGn2sWMJ8WOs-30">
          <mxGeometry relative="1" as="geometry" />
        </mxCell>
        <mxCell id="IoPZMogMuGn2sWMJ8WOs-22" value="Remove" style="rounded=1;whiteSpace=wrap;html=1;arcSize=40;fontColor=#000000;fillColor=#ffffc0;strokeColor=#ff0000;" vertex="1" parent="1">
          <mxGeometry x="250" y="410" width="120" height="30" as="geometry" />
        </mxCell>
        <mxCell id="IoPZMogMuGn2sWMJ8WOs-30" value="Sufficent&lt;br&gt;Balance" style="rhombus;whiteSpace=wrap;html=1;fillColor=#ffffc0;strokeColor=#ff0000;" vertex="1" parent="1">
          <mxGeometry x="270" y="460" width="80" height="80" as="geometry" />
        </mxCell>
        <mxCell id="IoPZMogMuGn2sWMJ8WOs-31" value="no" style="edgeStyle=orthogonalEdgeStyle;html=1;align=left;verticalAlign=bottom;endArrow=open;endSize=8;strokeColor=#ff0000;rounded=0;entryX=1;entryY=0.5;entryDx=0;entryDy=0;" edge="1" source="IoPZMogMuGn2sWMJ8WOs-30" parent="1" target="IoPZMogMuGn2sWMJ8WOs-22">
          <mxGeometry x="-1" relative="1" as="geometry">
            <mxPoint x="450" y="510" as="targetPoint" />
            <Array as="points">
              <mxPoint x="390" y="500" />
              <mxPoint x="390" y="425" />
            </Array>
          </mxGeometry>
        </mxCell>
        <mxCell id="IoPZMogMuGn2sWMJ8WOs-32" value="yes" style="edgeStyle=orthogonalEdgeStyle;html=1;align=left;verticalAlign=top;endArrow=open;endSize=8;strokeColor=#ff0000;rounded=0;entryX=0.5;entryY=0;entryDx=0;entryDy=0;" edge="1" source="IoPZMogMuGn2sWMJ8WOs-30" parent="1" target="IoPZMogMuGn2sWMJ8WOs-36">
          <mxGeometry x="-1" relative="1" as="geometry">
            <mxPoint x="310" y="580" as="targetPoint" />
          </mxGeometry>
        </mxCell>
        <mxCell id="IoPZMogMuGn2sWMJ8WOs-36" value="Add money to bank" style="rounded=1;whiteSpace=wrap;html=1;arcSize=40;fontColor=#000000;fillColor=#ffffc0;strokeColor=#ff0000;" vertex="1" parent="1">
          <mxGeometry x="250" y="590" width="120" height="40" as="geometry" />
        </mxCell>
        <mxCell id="IoPZMogMuGn2sWMJ8WOs-37" value="" style="edgeStyle=orthogonalEdgeStyle;html=1;verticalAlign=bottom;endArrow=open;endSize=8;strokeColor=#ff0000;rounded=0;" edge="1" source="IoPZMogMuGn2sWMJ8WOs-36" parent="1">
          <mxGeometry relative="1" as="geometry">
            <mxPoint x="310" y="690" as="targetPoint" />
          </mxGeometry>
        </mxCell>
        <mxCell id="IoPZMogMuGn2sWMJ8WOs-38" value="Remove money to bank" style="rounded=1;whiteSpace=wrap;html=1;arcSize=40;fontColor=#000000;fillColor=#ffffc0;strokeColor=#ff0000;" vertex="1" parent="1">
          <mxGeometry x="120" y="590" width="120" height="40" as="geometry" />
        </mxCell>
      </root>
    </mxGraphModel>
  </diagram>
</mxfile>
